<?xml version="1.0" standalone="no"?>
<!DOCTYPE svg PUBLIC "-//W3C//DTD SVG 20010904//EN"
 "http://www.w3.org/TR/2001/REC-SVG-20010904/DTD/svg10.dtd">
<svg version="1.0" xmlns="http://www.w3.org/2000/svg"
  width="32" height="32" viewBox="0 0 296.000000 291.000000"
  preserveAspectRatio="xMidYMid meet"
>

<g transform="translate(0.000000,291.000000) scale(0.100000,-0.100000)"
fill="#4a0189" stroke="none">
<path d="M1415 2896 c-66 -29 -104 -105 -92 -182 14 -82 99 -142 185 -129 57
8 115 61 131 120 35 128 -102 244 -224 191z"/>
<path d="M736 2745 c-21 -7 -52 -26 -68 -42 -136 -127 -50 -343 137 -343 156
0 249 147 180 286 -47 93 -150 135 -249 99z"/>
<path d="M2063 2684 c-100 -50 -96 -204 7 -257 92 -48 213 24 213 125 0 116
-114 184 -220 132z"/>
<path d="M1190 2398 c-59 -31 -82 -65 -88 -131 -5 -65 12 -104 65 -144 48 -36
135 -40 180 -7 74 55 97 155 50 225 -24 37 -97 79 -137 79 -14 0 -46 -10 -70
-22z"/>
<path d="M1654 2381 c-54 -33 -74 -68 -74 -127 0 -58 27 -102 81 -129 91 -47
202 24 202 129 0 109 -120 181 -209 127z"/>
<path d="M244 2226 c-65 -29 -106 -117 -86 -185 24 -78 81 -123 158 -123 119
0 197 145 131 243 -48 72 -128 97 -203 65z"/>
<path d="M2621 2202 c-86 -13 -133 -129 -80 -196 59 -75 161 -72 209 7 57 93
-20 206 -129 189z"/>
<path d="M761 2168 c-103 -69 -97 -224 10 -278 106 -55 225 10 237 128 3 39 0
58 -17 89 -33 57 -66 77 -136 81 -50 3 -66 0 -94 -20z"/>
<path d="M2059 2143 c-38 -23 -59 -64 -59 -113 0 -36 6 -48 39 -81 33 -33 45
-39 81 -39 76 0 130 52 130 125 0 97 -110 159 -191 108z"/>
<path d="M1200 1932 c-102 -51 -106 -192 -8 -252 62 -38 153 -17 193 43 46 70
17 173 -57 207 -53 24 -83 25 -128 2z"/>
<path d="M1642 1910 c-70 -43 -78 -136 -17 -197 29 -29 39 -33 85 -33 46 0 56
4 85 33 19 19 36 48 40 69 14 74 -48 148 -125 148 -19 0 -50 -9 -68 -20z"/>
<path d="M573 1771 c-67 -42 -87 -111 -54 -185 17 -38 29 -50 67 -67 158 -70
277 121 150 240 -36 34 -118 40 -163 12z"/>
<path d="M2274 1742 c-46 -29 -61 -74 -43 -126 29 -84 143 -98 190 -23 60 96
-51 209 -147 149z"/>
<path d="M73 1540 c-88 -53 -96 -176 -15 -238 76 -58 196 -22 223 67 38 129
-96 240 -208 171z"/>
<path d="M978 1524 c-52 -27 -74 -108 -45 -164 17 -34 74 -70 112 -70 38 0 95
36 112 70 29 57 6 137 -47 165 -37 19 -97 19 -132 -1z"/>
<path d="M1394 1506 c-80 -80 -21 -216 93 -216 42 0 92 35 110 77 22 53 11
101 -32 141 -30 27 -42 32 -86 32 -45 0 -55 -4 -85 -34z"/>
<path d="M1920 1523 c-40 -12 -60 -29 -75 -60 -23 -47 -13 -95 26 -127 86 -72
212 20 169 124 -18 43 -80 76 -120 63z"/>
<path d="M2741 1506 c-92 -51 -52 -195 54 -196 50 0 83 22 102 67 38 92 -66
179 -156 129z"/>
<path d="M573 1300 c-79 -48 -82 -150 -7 -209 50 -40 154 -18 184 39 16 31 15
92 -3 127 -18 34 -70 63 -114 63 -15 0 -42 -9 -60 -20z"/>
<path d="M2255 1255 c-45 -44 -29 -116 31 -141 90 -38 164 76 94 146 -29 29
-94 27 -125 -5z"/>
<path d="M1234 1131 c-36 -16 -64 -60 -64 -103 0 -53 51 -108 100 -108 96 0
146 110 83 180 -30 33 -82 46 -119 31z"/>
<path d="M1652 1100 c-26 -24 -37 -61 -28 -95 9 -35 63 -67 101 -60 37 6 75
48 75 81 0 32 -25 80 -45 88 -33 12 -82 6 -103 -14z"/>
<path d="M824 891 c-58 -36 -66 -117 -17 -166 69 -68 183 -20 183 77 0 82 -96
134 -166 89z"/>
<path d="M296 879 c-59 -16 -105 -90 -91 -146 25 -100 142 -134 213 -63 90 90
1 242 -122 209z"/>
<path d="M2050 850 c-43 -43 -10 -120 52 -120 57 0 87 68 52 118 -20 29 -76
30 -104 2z"/>
<path d="M2583 835 c-55 -23 -71 -90 -33 -137 50 -65 160 -22 160 62 0 24 -47
76 -75 84 -11 3 -34 -1 -52 -9z"/>
<path d="M1189 631 c-20 -20 -29 -39 -29 -61 0 -43 47 -90 90 -90 43 0 90 47
90 90 0 43 -47 90 -90 90 -22 0 -41 -9 -61 -29z"/>
<path d="M1667 622 c-25 -28 -22 -87 5 -106 49 -35 118 0 118 58 0 56 -86 89
-123 48z"/>
<path d="M742 364 c-89 -62 -47 -194 62 -194 69 0 115 56 102 125 -13 70 -107
109 -164 69z"/>
<path d="M2092 334 c-28 -20 -31 -83 -4 -107 26 -24 77 -21 102 5 58 63 -27
152 -98 102z"/>
<path d="M1441 176 c-53 -30 -64 -89 -25 -135 52 -63 154 -28 154 53 0 67 -74
114 -129 82z"/>
</g>
</svg>
